<?xml version="1.0" encoding="UTF-8" standalone="no"?>
<!DOCTYPE svg  PUBLIC '-//W3C//DTD SVG 1.1//EN'  'http://www.w3.org/Graphics/SVG/1.1/DTD/svg11.dtd'>
<svg xmlns="http://www.w3.org/2000/svg">
<defs>
<font id="STHeitiSC-Medium" vert-adv-y="1000" horiz-adv-x="554">
<font-face underline-position="0" font-weight="400" descent="-140" panose-1="0 0 0 0 0 0 0 0 0 0" units-per-em="1000" unicode-range="U+0020-0178" bbox="-68 -133 1040 903" x-height="605" underline-thickness="0" font-family="STHeitiSC" ascent="860" cap-height="792"/>
<missing-glyph horiz-adv-x="1000"/>
<glyph glyph-name=".notdef" horiz-adv-x="1000"/>
<glyph vert-adv-y="0" glyph-name="glyph1" horiz-adv-x="0"/>
<glyph glyph-name="nonmarkingreturn" horiz-adv-x="333"/>
<glyph glyph-name="space" horiz-adv-x="250" unicode=" "/>
<glyph glyph-name="exclam" horiz-adv-x="295" unicode="!" d="M147 231q29 0 48.5 -19.5t19.5 -47.5t-20 -48t-47.5 -20t-47.5 20t-20 48t20 47.5t47 19.5zM189 310h-85v550h85v-550z"/>
<glyph glyph-name="quotedbl" horiz-adv-x="309" unicode='&quot;' d="M103 860l-11 -240h-65l-11 240h87zM293 860l-12 -240h-64l-11 240h87z"/>
<glyph glyph-name="numbersign" horiz-adv-x="720" unicode="#" d="M446 566h-142l-23 -147h143zM637 566h-118l-22 -147h112v-69h-123l-36 -240h-72l36 240h-143l-36 -240h-73l37 240h-116v69h126l22 147h-118v69h128l35 228h72l-34 -228h143l34 228h72l-34 -228h108v-69z"/>
<glyph glyph-name="dollar" d="M328 351v-217q39 5 57.5 21t27.5 40t9 51q0 33 -16.5 56.5t-56.5 40.5zM262 470v224q-52 -10 -75 -42.5t-23 -74.5q0 -33 17 -55.5t65 -45.5zM328 -12h-66v70q-118 8 -161 60.5t-43 115.5v5h87v-5q0 -40 22 -66.5t95 -36.5v245l-26 12q-92 39 -123.5 83t-31.5 104 q0 50 19.5 89.5t57 65.5t104.5 34v73h66v-73q95 -7 128.5 -48t33.5 -87v-4h-86v4q0 25 -19 41t-57 23v-250l37 -13q43 -19 78 -44t49 -58t14 -69q0 -46 -19.5 -88.5t-56 -72.5t-102.5 -40v-70z" unicode="$"/>
<glyph glyph-name="percent" horiz-adv-x="775" unicode="%" d="M583 165q42 0 71.5 29t29.5 70.5t-29.5 71t-71 29.5t-70.5 -29.5t-29 -70.5t29 -70.5t70 -29.5zM583 441q73 0 124.5 -51.5t51.5 -124.5t-51.5 -124.5t-124 -51.5t-124 51.5t-51.5 124t51.5 124.5t123.5 52zM191 584q42 0 71.5 29t29.5 71t-29.5 71t-71 29t-71 -29.5 t-29.5 -70.5t29.5 -70.5t70.5 -29.5zM687 874l-532 -814h-82l474 725q-75 -17 -191 -17h-12q23 -39 23 -81q0 -75 -50.5 -127.5t-125 -52.5t-125.5 51t-51 125.5t52.5 125t121.5 50.5q27 0 77 -10.5t123 -10.5q116 0 227 36h71z"/>
<glyph glyph-name="ampersand" horiz-adv-x="757" unicode="&amp;" d="M479 264l-173 181q-84 -63 -112 -102.5t-28 -74.5t32.5 -65t76.5 -30t89 20.5t115 70.5zM317 560q89 72 89 120q0 23 -22.5 38.5t-56 15.5t-57.5 -16t-24 -42q0 -16 14.5 -42t56.5 -74zM747 110h-119l-90 93q-89 -66 -145.5 -88.5t-121.5 -22.5q-84 0 -137.5 49.5 t-53.5 120.5t45 128.5t125 120.5q-55 64 -72.5 99.5t-17.5 68.5q0 60 48 98.5t121 38.5t118.5 -41t45.5 -96q0 -36 -23 -76.5t-100 -106.5l175 -179l87 76l59 -62q-42 -37 -86 -72q57 -58 142 -149z"/>
<glyph glyph-name="quotesingle" horiz-adv-x="198" unicode="&apos;" d="M142 860l-11 -240h-64l-11 240h86z"/>
<glyph glyph-name="parenleft" horiz-adv-x="369" unicode="(" d="M320 903q-53 -109 -81.5 -241t-28.5 -265q0 -260 85 -466h-90q-82 197 -82 457q0 280 102 515h95z"/>
<glyph glyph-name="parenright" horiz-adv-x="369" unicode=")" d="M144 903q102 -235 102 -515q0 -260 -82 -457h-90q85 206 85 466q0 133 -28.5 265t-81.5 241h95z"/>
<glyph glyph-name="asterisk" horiz-adv-x="425" unicode="*" d="M393 738l-130 -59l129 -58l-39 -68l-115 80l14 -137h-80l14 137l-113 -80l-40 68l131 58l-131 59l40 67l113 -82l-14 137h80l-14 -137l115 82z"/>
<glyph glyph-name="plus" horiz-adv-x="606" unicode="+" d="M557 436h-214v-212h-80v212h-214v81h214v211h80v-211h214v-81z"/>
<glyph glyph-name="comma" horiz-adv-x="277" unicode="," d="M220 221l-105 -197l-61 26l87 209z"/>
<glyph glyph-name="hyphen" horiz-adv-x="332" unicode="-" d="M307 323h-282v74h282v-74z"/>
<glyph glyph-name="period" horiz-adv-x="277" unicode="." d="M151 231q27 1 47 -19t20 -48t-20 -48t-46 -20q-28 0 -48 20t-20 48t20 48t47 19z"/>
<glyph glyph-name="slash" horiz-adv-x="437" unicode="/" d="M418 860l-303 -848h-90l303 848h90z"/>
<glyph glyph-name="zero" d="M275 121q81 -1 127 79t46 226t-47 224t-127 78t-123 -78q-44 -78 -44 -226q0 -303 168 -303zM273 810q118 0 187 -100t69 -284q0 -186 -70 -285q-69 -99 -187 -99t-182 98t-65 286q1 190 65 287t183 97z" unicode="0"/>
<glyph glyph-name="one" d="M333 60h-85v648h-119l52 84h152v-732z" unicode="1"/>
<glyph glyph-name="two" d="M525 60h-511l285 308q72 76 102 120t30 100t-43.5 98t-108 42t-107.5 -45.5t-49 -129.5h-83q5 118 75 187.5t169.5 69.5t165 -64.5t65.5 -157.5q0 -68 -36 -127t-109 -137l-168 -181h323v-83z" unicode="2"/>
<glyph glyph-name="three" d="M399 472q59 -29 91.5 -80t32.5 -111q0 -98 -71.5 -168.5t-180.5 -70.5q-98 0 -160.5 56.5t-84.5 167.5h85q19 -71 56.5 -105.5t107 -34.5t116.5 43.5t47 109.5t-53.5 105t-157.5 41v80q75 0 121 32t46 79.5t-35.5 79t-86 31.5t-82 -28.5t-53.5 -86.5h-87q22 96 80 147 t143 51t147.5 -56t62.5 -136q0 -92 -84 -146z" unicode="3"/>
<glyph glyph-name="four" d="M362 310v270l-191 -270h191zM534 227h-87v-167h-85v167h-351l411 583h25v-500h87v-83z" unicode="4"/>
<glyph glyph-name="five" d="M499 710h-257l-33 -179q43 11 81 11q97 0 162 -68.5t65 -174.5t-70 -181.5t-187 -75.5q-90 0 -152 55t-75 151h87q13 -60 53 -92t91 -32q68 0 117 51.5t49 127.5q0 68 -42.5 112t-114.5 44t-168 -41l70 374h324v-82z" unicode="5"/>
<glyph glyph-name="six" d="M288 126q59 0 101.5 42t42.5 102t-42 102t-102 42t-102 -42t-42 -102t42.5 -102t101.5 -42zM249 484q32 9 61 9q83 0 145 -66t62 -160t-67 -159.5t-164 -65.5t-161.5 66t-64.5 161q0 46 18 94.5t65 118.5l222 331l72 -45z" unicode="6"/>
<glyph glyph-name="seven" d="M538 792l-392 -753l-71 38l330 633h-340v82h473z" unicode="7"/>
<glyph glyph-name="eight" d="M277 124q72 0 118 43t46 103q1 60 -47 104t-116 44t-116 -46q-49 -46 -49 -106q-1 -62 45 -102t119 -40zM280 497q52 0 90 36q38 37 38 83t-36 78t-93 33q-57 -1 -94 -33t-37 -78t40 -83q40 -36 92 -36zM398 461q129 -67 129 -188q1 -99 -69 -165t-182 -66t-181 66 q-68 66 -68 159q0 126 132 194q-98 57 -98 155q0 78 64 136q63 58 153 58t153 -57t63 -139q0 -95 -96 -153z" unicode="8"/>
<glyph glyph-name="nine" d="M270 438q60 0 102 42.5t42 101.5t-42 101.5t-102 42.5t-102 -42t-42 -102t42 -102t102 -42zM310 368q-29 -7 -58 -7q-89 0 -149.5 63.5t-60.5 159.5t67 161t164 65t161 -66.5t64 -159.5q0 -51 -21 -102.5t-61 -111.5l-221 -331l-72 46z" unicode="9"/>
<glyph glyph-name="colon" horiz-adv-x="277" unicode=":" d="M151 231q27 1 47 -19t20 -48t-20 -48t-46 -20q-28 0 -48 20t-20 48t20 48t47 19zM151 669q27 1 47 -19t20 -48t-19 -48t-47 -20t-48 20t-20 47q0 28 20 48t47 20z"/>
<glyph glyph-name="semicolon" horiz-adv-x="277" unicode=";" d="M220 221l-105 -197l-61 26l87 209zM151 669q28 0 47.5 -19.5t19.5 -48t-19 -48t-47.5 -19.5t-48 19.5t-19.5 47.5t20 48t47 20z"/>
<glyph glyph-name="less" horiz-adv-x="606" unicode="&lt;" d="M562 204l-518 236v72l518 237v-87l-400 -187l400 -185v-86z"/>
<glyph glyph-name="equal" horiz-adv-x="606" unicode="=" d="M557 328h-508v81h508v-81zM557 543h-508v81h508v-81z"/>
<glyph glyph-name="greater" horiz-adv-x="606" unicode="&gt;" d="M562 440l-518 -236v86l400 185l-400 187v87l518 -237v-72z"/>
<glyph glyph-name="question" horiz-adv-x="495" unicode="?" d="M298 70h-91v96h91v-96zM22 553q2 78 17 117.5t48.5 70t76.5 45.5t89 15q94 0 156.5 -55.5t62.5 -147.5q0 -42 -16 -75.5t-66.5 -81.5t-66.5 -69t-24 -49t-8 -70v-10h-82q0 61 9 97t27.5 61.5t63 72t60.5 71t16 70t-35 81t-100 35.5q-150 0 -150 -178h-78z"/>
<glyph glyph-name="at" horiz-adv-x="867" unicode="@" d="M397 328q57 0 90 53t33 128q0 46 -26 75t-66 29q-57 0 -97 -47.5t-40 -109t30 -95t76 -33.5zM762 266q-65 -87 -139.5 -130.5t-182 -43.5t-201.5 55.5t-141 143.5t-47 188q0 103 50.5 195t140.5 144.5t192 52.5t185 -44t131 -119t48 -158t-38 -150.5t-101.5 -106.5 t-119 -39t-63.5 45q-44 -40 -104 -40q-70 0 -118 51.5t-48 131.5q0 62 30.5 122t80.5 87.5t103 27.5q82 0 126 -60l10 55h67l-58 -327q-2 -9 -2 -16q0 -20 17 -20q53 0 109.5 66.5t56.5 162.5q0 117 -88.5 195.5t-219.5 78.5q-95 0 -173 -44.5t-120 -122t-42 -165 t41.5 -163.5t122 -123t177.5 -47q76 0 133 29t116 88h69z"/>
<glyph glyph-name="A" horiz-adv-x="740" unicode="A" d="M483 392l-111 247l-112 -247h223zM726 60h-91l-113 245h-302l-112 -245h-95l346 761h26z"/>
<glyph glyph-name="B" horiz-adv-x="574" unicode="B" d="M167 144h82q77 0 112 15t56 46t21 63t-12.5 56.5t-37 43.5t-60 28.5t-128.5 9.5h-33v-262zM167 492h34q90 0 134.5 28t44.5 89q0 99 -137 99h-76v-216zM386 461q70 -26 105.5 -74t35.5 -114q0 -92 -66.5 -152.5t-173.5 -60.5h-205v732h149q116 0 176.5 -47.5t60.5 -135.5 q0 -96 -82 -148z"/>
<glyph glyph-name="C" horiz-adv-x="813" unicode="C" d="M767 194q-118 -152 -324 -152q-174 0 -285 110t-111 278q-1 104 51 192t143 138t197 50t188 -40q84 -40 140 -119l-66 -51q-104 126 -257 126q-125 0 -215 -88t-91 -216q1 -128 89 -212q88 -86 229 -86t245 121z"/>
<glyph glyph-name="D" horiz-adv-x="744" unicode="D" d="M163 142h76q127 0 185 13t101 50t65.5 90.5t22.5 123.5t-26.5 129.5t-75.5 97t-115 50t-189 12.5h-44v-566zM80 792h156q158 0 230 -23.5t124.5 -73t80.5 -120.5t28 -164t-41.5 -175.5t-118 -129t-223.5 -46.5h-236v732z"/>
<glyph glyph-name="E" horiz-adv-x="536" unicode="E" d="M507 707h-340v-210h337v-84h-337v-268h337v-85h-423v732h426v-85z"/>
<glyph glyph-name="F" horiz-adv-x="485" unicode="F" d="M454 412h-288v-352h-86v732h374v-85h-288v-210h288v-85z"/>
<glyph glyph-name="G" horiz-adv-x="872" unicode="G" d="M832 418q-3 -178 -103.5 -277t-264.5 -99q-188 0 -300 115.5t-112 270.5t112 268.5t289 113.5q96 0 178.5 -35.5t161.5 -108.5l-66 -63q-61 59 -132 90.5t-146 31.5t-149 -40t-116 -108t-42 -147q0 -123 92.5 -214.5t231.5 -91.5q103 0 178 56.5t92 154.5h-228v83h324z "/>
<glyph glyph-name="H" horiz-adv-x="683" unicode="H" d="M603 60h-86v347h-351v-347h-87v732h87v-301h351v301h86v-732z"/>
<glyph glyph-name="I" horiz-adv-x="226" unicode="I" d="M156 60h-86v732h86v-732z"/>
<glyph glyph-name="J" horiz-adv-x="482" unicode="J" d="M402 300q0 -101 -15.5 -150t-60 -78.5t-96 -29.5t-95 16t-102.5 67l46 68q58 -42 88 -56t58.5 -14t52.5 21t30.5 54.5t6.5 104.5v489h87v-492z"/>
<glyph glyph-name="K" horiz-adv-x="591" unicode="K" d="M587 60h-114l-305 324v-324h-88v732h88v-260l276 260h118l-353 -329z"/>
<glyph glyph-name="L" horiz-adv-x="462" unicode="L" d="M443 60h-363v732h87v-649h276v-83z"/>
<glyph glyph-name="M" horiz-adv-x="919" unicode="M" d="M872 60h-85l-68 498l-246 -498h-26l-249 502l-68 -502h-83l104 732h21l288 -581l286 581h21z"/>
<glyph glyph-name="N" horiz-adv-x="740" unicode="N" d="M659 60h-26l-464 531v-531h-88v732h26l467 -538v538h85v-732z"/>
<glyph glyph-name="O" horiz-adv-x="869" unicode="O" d="M433 126q125 0 211.5 85t86.5 213t-87.5 215t-210.5 87q-126 0 -210.5 -87.5t-84.5 -213t87 -212.5t208 -87zM430 810q107 0 197 -50.5t141.5 -139.5t51.5 -193.5t-51 -193.5t-140 -140t-193.5 -51t-194.5 50.5t-141 139t-51 193t51 194t139.5 140.5t190.5 51z"/>
<glyph glyph-name="P" horiz-adv-x="592" unicode="P" d="M166 477h114h11q92 0 127.5 33t35.5 84q0 114 -168 114h-120v-231zM80 792h150q128 0 168 -10t73.5 -36t52.5 -65t19 -88t-18.5 -88t-53 -64.5t-84.5 -36t-177 -10.5h-44v-334h-86v732z"/>
<glyph glyph-name="Q" horiz-adv-x="871" unicode="Q" d="M646 211q86 87 86 214t-88 214t-210 87t-208.5 -88t-86.5 -215.5t87.5 -211.5t208.5 -84q78 0 145 36l-164 207h104zM633 94q-87 -52 -192 -52q-166 0 -278.5 110.5t-112.5 270.5q0 164 109 275.5t276 111.5q105 0 194 -50.5t140 -139.5t51 -194q0 -164 -120 -282 l111 -141h-107z"/>
<glyph glyph-name="R" horiz-adv-x="607" unicode="R" d="M170 478h117h6q83 0 124.5 27t41.5 87.5t-41 88t-128 27.5h-120v-230zM566 60h-108l-258 334h-30v-334h-86v732h150q120 0 165 -10.5t78 -35.5t52 -64.5t19 -87.5q0 -91 -62 -145.5t-179 -54.5z"/>
<glyph glyph-name="S" horiz-adv-x="498" unicode="S" d="M362 631q-40 54 -68 72.5t-65.5 18.5t-63 -24t-25.5 -61.5t24 -65.5t110.5 -91.5t126.5 -119.5t40 -118q0 -81 -62.5 -140.5t-145.5 -59.5q-146 0 -229 163l73 42q65 -121 146 -121q52 0 89 33t37 77t-31 83.5t-107 97t-104.5 87.5t-41.5 64t-13 68q0 73 50.5 123.5 t130.5 50.5q62 0 108 -31.5t90 -93.5z"/>
<glyph glyph-name="T" horiz-adv-x="426" unicode="T" d="M417 708h-160v-648h-87v648h-161v84h408v-84z"/>
<glyph glyph-name="U" horiz-adv-x="655" unicode="U" d="M572 352q0 -111 -22.5 -170.5t-80 -99.5t-134.5 -40q-61 0 -110 19.5t-81.5 55t-46.5 79t-14 156.5v440h86v-440q0 -71 4 -102.5t23 -61t54.5 -47t80.5 -17.5q54 0 93.5 31.5t51 73t11.5 123.5v440h85v-440z"/>
<glyph glyph-name="V" horiz-adv-x="702" unicode="V" d="M679 792l-319 -750h-23l-314 750h92l234 -563l238 563h92z"/>
<glyph glyph-name="W" horiz-adv-x="960" unicode="W" d="M923 792l-210 -750h-25l-208 547l-212 -547h-24l-206 750h89l141 -518l200 518h24l198 -519l144 519h89z"/>
<glyph glyph-name="X" horiz-adv-x="609" unicode="X" d="M589 60h-101l-183 294l-183 -294h-101l234 377l-219 355h101l168 -273l170 273h100l-219 -355z"/>
<glyph glyph-name="Y" horiz-adv-x="592" unicode="Y" d="M574 792l-234 -384v-348h-84v348l-238 384h100l179 -289l177 289h100z"/>
<glyph glyph-name="Z" horiz-adv-x="480" unicode="Z" d="M449 792l-300 -648h281v-84h-414l303 649h-266v83h396z"/>
<glyph glyph-name="bracketleft" horiz-adv-x="351" unicode="[" d="M313 -105h-178v944h178v-83h-96v-780h96v-81z"/>
<glyph glyph-name="backslash" horiz-adv-x="605" unicode="\" d="M584 -38h-90l-474 848h91z"/>
<glyph glyph-name="bracketright" horiz-adv-x="351" unicode="]" d="M216 -105h-178v81h96v780h-96v83h178v-944z"/>
<glyph glyph-name="asciicircum" horiz-adv-x="672" unicode="^" d="M625 238h-80l-211 456l-208 -456h-78l255 554h66z"/>
<glyph glyph-name="underscore" horiz-adv-x="500" unicode="_" d="M500 -65h-500v64h500v-64z"/>
<glyph glyph-name="grave" horiz-adv-x="378" unicode="`" d="M280 690h-85l-158 164h126z"/>
<glyph glyph-name="a" horiz-adv-x="683" unicode="a" d="M332 119q83 0 143 60q60 59 60 149t-59 150q-58 60 -144 61q-86 -1 -145 -63t-59 -147t60 -147t144 -63zM612 60h-81v80q-89 -98 -205 -98t-198 86t-83 204q0 118 83 202q82 84 202 85q120 0 201 -97v83h81v-545z"/>
<glyph glyph-name="b" horiz-adv-x="682" unicode="b" d="M354 122q85 0 144.5 63t59.5 147.5t-58 147.5t-145 63t-145.5 -59t-58.5 -148.5t59 -151.5t144 -62zM155 525q85 94 204 94t200.5 -84.5t81.5 -203.5t-83 -204t-200.5 -85t-202.5 102v-84h-81v750h81v-285z"/>
<glyph glyph-name="c" horiz-adv-x="647" unicode="c" d="M602 171q-43 -63 -112.5 -96t-150.5 -33q-126 0 -210.5 83t-84.5 203t85 205.5t220 85.5q80 0 147.5 -35t105.5 -98l-65 -41q-73 95 -191 95q-93 0 -156 -59.5t-63 -147.5t62 -151t157 -63q114 0 192 96z"/>
<glyph glyph-name="d" horiz-adv-x="685" unicode="d" d="M333 119q79 0 141 59t62 149.5t-57.5 151t-145 60.5t-146 -62.5t-58.5 -147t60 -147.5t144 -63zM613 60h-81v80q-89 -98 -205.5 -98t-198.5 85t-82 204t83 203.5t202.5 84.5t200.5 -97v288h81v-750z"/>
<glyph glyph-name="e" horiz-adv-x="650" unicode="e" d="M514 391q-15 70 -68 109t-122 39q-140 0 -186 -148h376zM606 318h-478q5 -90 60.5 -144.5t132.5 -54.5q131 0 200 129l70 -36q-47 -87 -111 -128.5t-153 -41.5q-123 0 -203 84.5t-80 203.5t80.5 204t199.5 85t199 -80.5t83 -220.5z"/>
<glyph glyph-name="f" horiz-adv-x="314" unicode="f" d="M302 712q-48 20 -75 20t-35 -17.5t-8 -58.5v-51h111v-72h-111v-473h-83v473h-69v72h69v62q0 74 27.5 108.5t86.5 34.5q32 0 87 -15v-83z"/>
<glyph glyph-name="g" horiz-adv-x="673" unicode="g" d="M534 341q0 86 -57.5 142t-140.5 56q-88 0 -147.5 -60.5t-59.5 -140.5t57 -135.5t146 -55.5t145.5 54.5t56.5 139.5zM614 188q0 -108 -18.5 -160t-56 -88t-90 -54.5t-115.5 -18.5q-213 0 -284 180h88q58 -104 193 -104q62 0 111 24t69 64t20 123v5q-39 -44 -94 -67 t-114 -23q-118 0 -197.5 81t-78.5 191q-1 115 83 196.5t199.5 81.5t201.5 -94v80h83v-417z"/>
<glyph glyph-name="h" horiz-adv-x="610" unicode="h" d="M547 60h-83v260q0 76 -4.5 107t-20.5 58.5t-43.5 42t-66 14.5t-73.5 -18t-60 -50t-34.5 -68t-9.5 -144v-202h-83v750h83v-287q81 96 192 96q59 0 107 -30.5t72 -84t24 -164.5v-280z"/>
<glyph glyph-name="i" horiz-adv-x="200" unicode="i" d="M142 60h-83v545h83v-545zM100 810q27 0 45.5 -18.5t18.5 -45t-18.5 -45t-45 -18.5t-45 19t-18.5 44.5t18.5 44.5t44.5 19z"/>
<glyph glyph-name="j" horiz-adv-x="203" unicode="j" d="M151 19q0 -69 -18 -101t-53 -32t-80 17v76q32 -13 45 -13t18 13t5 60v566h83v-586zM109 810q26 0 44.5 -18.5t18.5 -44.5t-19 -45t-44 -19t-44.5 19t-19.5 44.5t19 44.5t45 19z"/>
<glyph glyph-name="k" horiz-adv-x="502" unicode="k" d="M497 60h-119l-256 230v-230h-83v750h83v-411l235 205l123 1l-300 -260z"/>
<glyph glyph-name="l" horiz-adv-x="200" unicode="l" d="M141 60h-82v750h82v-750z"/>
<glyph glyph-name="m" horiz-adv-x="938" unicode="m" d="M877 60h-84v297q0 71 -8.5 104t-37 55.5t-75 22.5t-87.5 -30t-57 -81.5t-16 -152.5v-215h-81v279q0 82 -8.5 118t-37.5 59t-73 23t-83.5 -27.5t-58.5 -72t-19 -147.5v-232h-82v545h82v-77q70 91 175 91q57 0 103.5 -30.5t66.5 -86.5q34 57 85 87t108 30q78 0 133 -55 t55 -207v-297z"/>
<glyph glyph-name="n" horiz-adv-x="610" unicode="n" d="M547 60h-82v260q0 90 -8.5 122.5t-25 55t-42 33.5t-62 11t-71.5 -18t-60 -50t-34.5 -68t-9.5 -144v-202h-83v545h83v-82q81 96 192 96q59 0 107 -30.5t72 -84t24 -164.5v-280z"/>
<glyph glyph-name="o" horiz-adv-x="655" unicode="o" d="M328 121q84 1 142 61t58 146t-60 148t-140 62q-82 0 -141 -62t-59 -149q0 -86 57 -146t143 -60zM328 619q118 0 200 -85t83 -204q1 -120 -81 -204t-202 -84t-202 84t-82 204q0 119 82 204t202 85z"/>
<glyph glyph-name="p" horiz-adv-x="682" unicode="p" d="M352 119q82 0 142.5 61.5t60.5 148.5t-59.5 148.5t-145.5 61.5t-144.5 -60.5t-58.5 -149.5t60 -149.5t145 -60.5zM152 522q81 97 200 97t202 -84.5t83 -203.5t-82 -204t-198 -85t-205 98v-273h-82v738h82v-83z"/>
<glyph glyph-name="q" horiz-adv-x="682" unicode="q" d="M331 119q80 0 142.5 60.5t62.5 147.5t-58.5 149.5t-144.5 62.5t-145.5 -63t-59.5 -148t60.5 -147t142.5 -62zM612 -133h-81v273q-88 -98 -205 -98t-199 85.5t-82 204t83 203t202 84.5t201 -97v83h81v-738z"/>
<glyph glyph-name="r" horiz-adv-x="301" unicode="r" d="M299 597l-43 -70q-17 9 -33 9q-31 0 -56 -30.5t-37.5 -80t-12.5 -178.5v-187h-84v545h84v-59q25 37 50.5 55t58 18t73.5 -22z"/>
<glyph glyph-name="s" horiz-adv-x="388" unicode="s" d="M353 541l-53 -55q-59 55 -108 55q-31 0 -52 -19.5t-21 -48t23.5 -50t83.5 -53t92.5 -69.5t32.5 -93q0 -70 -48.5 -118t-119.5 -48q-99 0 -165 84l52 58q54 -63 110 -63q38 0 65 25t27 58.5t-24.5 56t-84 52.5t-90 66.5t-30.5 96t43.5 101.5t115 42t151.5 -78z"/>
<glyph glyph-name="t" horiz-adv-x="339" unicode="t" d="M320 533h-108v-382q0 -21 6 -25.5t30 -4.5h48v-71q-48 -8 -73 -8q-48 0 -71 23.5t-23 74.5v393h-94v72h94v205h83v-205h108v-72z"/>
<glyph glyph-name="u" horiz-adv-x="608" unicode="u" d="M539 60h-83v82q-81 -96 -192 -96q-59 0 -107 30.5t-72 84t-24 164.5v280h82v-260q0 -90 8.5 -122.5t25 -55t42 -33.5t62 -11t71.5 18t60 50t34.5 68t9.5 144v202h83v-545z"/>
<glyph glyph-name="v" d="M536 605l-249 -563h-20l-251 563h87l173 -394l173 394h87z" unicode="v"/>
<glyph glyph-name="w" horiz-adv-x="831" unicode="w" d="M828 605l-233 -563h-21l-160 388l-161 -388h-21l-229 563h85l154 -392l162 392h20l161 -393l157 393h86z"/>
<glyph glyph-name="x" horiz-adv-x="480" unicode="x" d="M481 60h-101l-141 216l-140 -216h-99l189 287l-170 258h100l120 -186l119 186h100l-169 -257z"/>
<glyph glyph-name="y" horiz-adv-x="536" unicode="y" d="M534 605l-323 -738h-86l105 240l-221 498h86l179 -399l173 399h87z"/>
<glyph glyph-name="z" horiz-adv-x="425" unicode="z" d="M424 605l-278 -470h274v-75h-418l278 471h-254v74h398z"/>
<glyph glyph-name="braceleft" horiz-adv-x="351" unicode="{" d="M326 -109h-34q-71 0 -104 24t-44.5 65t-12 131t-6 127.5t-28 58.5t-67.5 23v94q48 0 71 25.5t26 62t4 138t21.5 137t50 51t89.5 15.5h34v-90h-22q-35 0 -51.5 -10t-21 -30.5t-4.5 -74.5q0 -149 -19 -195t-74 -76q29 -14 50.5 -39.5t32 -65t10.5 -129.5t4 -112.5t21 -31 t74 -8.5v-90z"/>
<glyph glyph-name="bar" horiz-adv-x="672" unicode="|" d="M378 -105h-84v944h84v-944z"/>
<glyph glyph-name="braceright" horiz-adv-x="351" unicode="}" d="M321 320q-44 -2 -67 -22.5t-28.5 -58.5t-6 -128.5t-12.5 -131.5t-45 -64.5t-103 -23.5h-34v90q49 0 65.5 4.5t23.5 17.5t8.5 39.5t1.5 118t23.5 137.5t69.5 69q-41 22 -60.5 52t-26 75t-6.5 165q0 62 -16.5 78t-60.5 16h-22v90h34q69 0 101 -22t45.5 -60.5t14.5 -129.5 t4 -128t26 -63t71 -26v-94z"/>
<glyph glyph-name="asciitilde" horiz-adv-x="606" unicode="~" d="M558 393q-57 -32 -81.5 -41t-48.5 -9q-50 0 -133 38q-56 25 -76.5 32.5t-39.5 7.5t-45.5 -11t-85.5 -46v95q55 31 81 40.5t50 9.5q49 0 134 -41q84 -40 115 -40q36 0 130 61v-96z"/>
<glyph glyph-name="exclamdown" horiz-adv-x="295" unicode="¡" d="M191 -133h-85v556h85v-556zM147 619q28 0 48 -19.5t20 -47.5t-20 -48t-47.5 -20t-47.5 20t-20 47.5t20 47.5t47 20z"/>
<glyph glyph-name="cent" horiz-adv-x="647" unicode="¢" d="M190 480q-63 -59 -63 -147t62 -151q47 -49 115 -60v415q-66 -11 -114 -57zM388 -105h-84v149q-103 10 -176 81q-84 83 -84 203t85 205q70 71 175 83v153h84v-152q58 -7 108 -33q68 -35 106 -98l-65 -41q-60 77 -149 91v-414q86 15 150 93l64 -44q-43 -63 -113 -96 q-48 -23 -101 -30v-150z"/>
<glyph glyph-name="sterling" d="M179 174q-27 16 -48 16q-29 0 -29 -31q0 -13 7 -21t18 -8q31 0 52 44zM532 251q0 -93 -33 -146.5t-86 -53.5q-71 0 -165 74q-42 -74 -118 -74q-50 0 -79.5 26.5t-29.5 74t34.5 83t80.5 35.5q31 0 65 -16q2 23 2 44q0 64 -20 120h-142v77h121q-19 70 -25 100.5t-6 56.5 q0 69 53 118t130.5 49t123 -51t53.5 -150h-81q-6 122 -94 122q-46 0 -74.5 -25.5t-28.5 -67.5q0 -35 14 -78l24 -74h158v-77h-138q16 -62 16 -118t-9 -93q44 -35 74 -52t52 -17t32 27.5t13 85.5h83z" unicode="£"/>
<glyph glyph-name="currency" horiz-adv-x="847" unicode="¤" d="M418 87q72 0 139.5 42t108 110t40.5 137q0 121 -85 207t-204 86t-203 -86.5t-84 -206.5t85 -204.5t203 -84.5zM690 619q86 -103 86 -238t-83 -232l81 -79l-40 -39l-81 79q-97 -85 -235.5 -85t-239.5 88l-78 -79l-38 38l79 76q-87 99 -87 229q0 135 90 238l-84 84l36 36 l86 -84q101 86 236 86t232 -80l85 82l36 -41z"/>
<glyph glyph-name="yen" d="M535 842l-203 -359h169v-71h-183v-61h183v-72h-183v-169h-84v169h-181v72h181v61h-181v71h167l-202 359h98l160 -287l162 287h97z" unicode="¥"/>
<glyph glyph-name="brokenbar" horiz-adv-x="672" unicode="¦" d="M378 -83h-84v408l84 31v-439zM378 474l-84 -33v419h84v-386z"/>
<glyph glyph-name="section" horiz-adv-x="607" unicode="§" d="M479 712h-64l-10 10q-3 27 -19 45t-38 26q-19 7 -40 7h-6q-24 0 -42 -10q-20 -10 -30 -28q-8 -13 -7 -29q0 -7 1 -14q4 -23 24 -43t36 -33q23 -17 47 -29t47 -27q32 -17 60 -41t46 -52t20 -60v-9q0 -29 -17 -61q-6 -12 -15 -22t-20 -18q-20 -15 -40 -24q-10 -5 -21 -8 q9 -7 19 -15q20 -15 34 -37q10 -16 18 -32t11 -35q3 -16 3 -30q0 -31 -14 -57q-20 -36 -56 -58t-83 -26q-12 -1 -24 -1q-33 -1 -65 9q-44 12 -76 44q-32 31 -41 80q5 5 11 13h65q2 -2 4 -3t4 -3q15 -39 47 -53q24 -10 52 -10q10 0 22 1q14 2 28 9t23 18q11 11 15 25t0 29 q-8 28 -26 46t-40 35q-21 15 -50 33t-58 37q-28 19 -54 43t-42 50t-17 58v6q0 28 17 60q11 21 30 39q14 13 28 21t30 14q-16 14 -32 30t-23 36q-13 32 -13 61v13q4 35 20 62q16 26 45 46q28 20 61 28q24 6 50 6q10 0 19 -1q36 -3 69 -21q41 -21 61 -58t26 -81zM277 556 q-13 -3 -25 -7q-13 -4 -25 -12q-17 -11 -27 -23t-12 -32q-1 -6 -1 -12q0 -20 10 -36q13 -22 33 -39t46 -30q24 -13 43 -24q25 3 50 14q8 3 14 8t13 11q22 19 25 38q1 4 1 9q0 14 -8 28q-10 19 -28 35t-40 30t-42 26q-16 10 -27 16z"/>
<glyph glyph-name="dieresis" horiz-adv-x="550" unicode="¨" d="M164 646h-113v116h113v-116zM475 646h-113v116h113v-116z"/>
<glyph glyph-name="copyright" horiz-adv-x="767" unicode="©" d="M580 393q-13 -90 -65 -139.5t-129 -49.5q-97 0 -153.5 62t-56.5 170t58.5 173.5t147 65.5t140 -42.5t58.5 -121.5h-81q-19 87 -109 87q-60 0 -95 -43t-35 -120t33.5 -119.5t90.5 -42.5q97 0 115 120h81zM385 118q128 0 222.5 93t94.5 227q0 128 -92 222.5t-225 94.5 q-131 0 -224.5 -92t-93.5 -226q0 -129 93.5 -224t224.5 -95zM384 821q104 0 192.5 -52t139.5 -141.5t51 -191.5t-51.5 -190.5t-141 -140t-191.5 -51.5t-191 52t-140.5 141t-51.5 191t52 191t141.5 140.5t190.5 51.5z"/>
<glyph glyph-name="ordfeminine" horiz-adv-x="369" unicode="ª" d="M326 337h-282v72h282v-72zM178 512q36 0 61 33t25 83.5t-24.5 82.5t-61 32t-62 -33t-25.5 -81.5t26 -82.5t61 -34zM331 456h-69v33q-39 -41 -96.5 -41t-101 52.5t-43.5 129.5t43.5 128.5t100.5 51.5t97 -43v35h69v-346z"/>
<glyph glyph-name="guillemotleft" horiz-adv-x="483" unicode="«" d="M226 70h-86l-111 272l111 273h86l-112 -273zM450 70h-87l-110 272l110 273h87l-113 -273z"/>
<glyph glyph-name="logicalnot" horiz-adv-x="606" unicode="¬" d="M557 278h-81v215h-427v81h508v-296z"/>
<glyph glyph-name="uni00AD" horiz-adv-x="1000" unicode="­" d="M330 -37h-93v31h93v-31zM474 -37h-93v31h93v-31zM618 -37h-93v31h93v-31zM762 -37h-93v31h93v-31zM186 -37h-82v73h31v-42h51v-31zM895 -37h-82v31h51v42h31v-73zM135 91h-31v93h31v-93zM895 91h-31v93h31v-93zM135 239h-31v92h31v-92zM895 239h-31v92h31v-92zM632 291 h-265v47h265v-47zM135 387h-31v92h31v-92zM895 387h-31v92h31v-92zM135 534h-31v93h31v-93zM895 534h-31v93h31v-93zM554 375h-45v133h-73v-133h-45v282h45v-108h73v108h45v-282zM818 657l-100 -145v-137h-47v136l-102 146h50l75 -101l75 101h49zM328 591q-27 22 -46.5 22 t-28.5 -8t-9 -20t7.5 -19t38.5 -22q68 -36 68 -89q0 -36 -25.5 -60t-66 -24t-80.5 45l29 29q31 -26 51.5 -26t32.5 10.5t12 25t-11.5 24t-41.5 24.5t-45.5 32.5t-15.5 49t23.5 54t60 22.5t71.5 -41zM186 725h-51v-42h-31v73h82v-31zM895 683h-31v42h-51v31h82v-73zM330 725 h-93v31h93v-31zM474 725h-93v31h93v-31zM618 725h-93v31h93v-31zM762 725h-93v31h93v-31z"/>
<glyph glyph-name="registered" horiz-adv-x="767" unicode="®" d="M301 474h102q44 0 64.5 13t20.5 45.5t-18.5 45.5t-62.5 13h-106v-117zM595 213h-96q-8 31 -11 72l-4 54q-2 34 -13 46t-66 12h-104v-184h-84v455h191q87 0 125.5 -30t38.5 -98t-48 -100q23 -12 33 -31.5t10 -68.5v-50q0 -16 3 -27t12 -27zM385 118q128 0 222.5 93 t94.5 227q0 128 -92 222.5t-225 94.5q-131 0 -224.5 -92t-93.5 -226q0 -129 93.5 -224t224.5 -95zM384 821q104 0 192.5 -52t139.5 -141.5t51 -191.5t-51.5 -190.5t-141 -140t-191.5 -51.5t-191 52t-140.5 141t-51.5 191t52 191t141.5 140.5t190.5 51.5z"/>
<glyph glyph-name="macron" horiz-adv-x="500" unicode="¯" d="M500 796h-500v64h500v-64z"/>
<glyph glyph-name="degree" horiz-adv-x="1000" unicode="°" d="M340 693q0 35 -26 61t-62 26t-58 -25q-24 -25 -24 -61t24 -61t58 -25q36 0 62 26t26 59zM252 814q54 0 88 -34t34 -84q0 -51 -34 -85t-86 -34q-52 1 -88 35t-36 84t36 84t86 34z"/>
<glyph glyph-name="plusminus" horiz-adv-x="745" unicode="±" d="M692 112h-614v68h614v-68zM692 523h-270v-250h-74v250h-270v68h270v236h74v-236h270v-68z"/>
<glyph glyph-name="uni00B2" horiz-adv-x="332" unicode="²" d="M330 468h-329l182 171q50 48 61 63.5t11 37t-21.5 40t-54.5 18.5q-79 0 -86 -85h-66q2 68 45.5 107.5t108.5 39.5t104.5 -36t39.5 -84q0 -23 -8.5 -44t-23.5 -37.5t-58 -56.5l-78 -72h173v-62z"/>
<glyph glyph-name="uni00B3" horiz-adv-x="344" unicode="³" d="M265 634q60 -34 60 -96q0 -54 -44 -91.5t-113 -37.5q-128 0 -156 132h69q17 -70 87 -70q39 0 64.5 19t25.5 48t-30.5 43.5t-93.5 17.5v60h7q42 0 66.5 12.5t24.5 32t-18 32t-46.5 12.5t-45 -14t-28.5 -43h-68q31 119 141 119q59 0 97 -31t38 -73t-37 -72z"/>
<glyph glyph-name="acute" horiz-adv-x="375" unicode="´" d="M345 852l-179 -147h-85l138 147h126z"/>
<glyph glyph-name="uni00B5" horiz-adv-x="610" unicode="µ" d="M541 60h-83v78q-81 -96 -192 -96q-76 0 -120 44v-219h-83v738h83v-265q0 -105 11.5 -141t43 -58t82.5 -22t96.5 33.5t62 80t16.5 166.5v206h83v-545z"/>
<glyph glyph-name="paragraph" horiz-adv-x="564" unicode="¶" d="M506 741h-41v-794h-72v794h-92v-794h-72v437h-3q-85 0 -136 55.5t-51 148t54.5 148.5t155.5 56h257v-51z"/>
<glyph glyph-name="periodcentered" horiz-adv-x="1000" unicode="·" d="M563 272h-126v128h126v-128z"/>
<glyph glyph-name="cedilla" horiz-adv-x="324" unicode="¸" d="M195 68h9q25 0 44.5 -16t19.5 -43q-1 -54 -34 -78t-57.5 -24.5t-25.5 -0.5q-46 0 -88 18l15 47q34 -12 62 -12q55 1 56 43q0 14 -19.5 14t-43.5 -3l13 111h57z"/>
<glyph glyph-name="uni00B9" horiz-adv-x="332" unicode="¹" d="M208 418h-68v321h-80l45 62h103v-383z"/>
<glyph glyph-name="ordmasculine" horiz-adv-x="369" unicode="º" d="M316 337h-262v72h262v-72zM184 514q39 0 66.5 32t27.5 81t-28 82.5t-65.5 33.5t-65.5 -33.5t-28 -82t27 -81t66 -32.5zM184 810q69 0 117 -52.5t48 -130t-48 -128.5t-117.5 -51t-116.5 51.5t-47 129.5t47.5 129.5t116.5 51.5z"/>
<glyph glyph-name="guillemotright" horiz-adv-x="482" unicode="»" d="M232 340l-110 -273h-87l112 273l-112 272h87zM456 340l-111 -273h-86l112 273l-112 272h86z"/>
<glyph glyph-name="onequarter" horiz-adv-x="831" unicode="¼" d="M698 200v95l-83 -95h83zM817 139h-51v-83h-68v83h-219l287 331v-270h51v-61zM190 418h-68v321h-80l46 62h102v-383zM708 810l-461 -768h-71l460 768h72z"/>
<glyph glyph-name="onehalf" horiz-adv-x="831" unicode="½" d="M776 56h-336l188 170q47 43 61 61.5t14 41.5t-22.5 40.5t-56.5 17.5q-78 0 -87 -87h-65q2 72 46.5 110t108.5 38t104 -35.5t40 -84.5q0 -31 -18 -61.5t-70 -76.5l-80 -72h173v-62zM185 418h-68v321h-80l45 62h103v-383zM654 810l-461 -768h-71l460 768h72z"/>
<glyph glyph-name="threequarters" horiz-adv-x="831" unicode="¾" d="M694 250v95l-82 -95h82zM814 189h-52v-83h-68v83h-219l287 331v-270h52v-61zM729 860l-461 -768h-71l460 768h72zM277 684q29 -17 45 -43t16 -53q0 -54 -44 -91.5t-113 -37.5q-132 0 -155 132h67q17 -70 88 -70q39 0 64 18.5t25 48t-30.5 45t-93.5 16.5v60h6 q41 0 66.5 12.5t25.5 32t-18 32t-46.5 12.5t-45 -14t-28.5 -43h-68q31 119 141 119q59 0 97.5 -31t38.5 -73t-38 -72z"/>
<glyph glyph-name="questiondown" horiz-adv-x="495" unicode="¿" d="M477 123q-2 -78 -17 -117.5t-48.5 -70t-76.5 -45.5t-89 -15q-94 0 -156.5 55.5t-62.5 147.5q0 42 16 75.5t66.5 81.5t66.5 69t24 49t8 70v10h82q0 -61 -9 -97t-16.5 -56.5t-64.5 -72.5t-73 -75.5t-16 -68t36 -78.5t103 -34q152 0 152 172h75zM292 500h-91v86h91v-86z"/>
<glyph glyph-name="Agrave" horiz-adv-x="740" unicode="À" d="M483 347l-111 211l-112 -211h223zM727 60h-92l-113 210h-302l-112 -210h-95l346 656h26zM505 738h-86l-156 114h126z"/>
<glyph glyph-name="Aacute" horiz-adv-x="740" unicode="Á" d="M483 347l-111 211l-112 -211h223zM727 60h-92l-113 210h-302l-112 -210h-95l346 656h26zM506 887l-179 -144h-85l138 144h126z"/>
<glyph glyph-name="Acircumflex" horiz-adv-x="740" unicode="Â" d="M483 347l-111 211l-112 -211h223zM727 60h-92l-113 210h-302l-112 -210h-95l346 656h26zM573 738h-113l-86 71l-85 -71h-109l157 138h73z"/>
<glyph glyph-name="Atilde" horiz-adv-x="740" unicode="Ã" d="M483 347l-111 211l-112 -211h223zM727 60h-92l-113 210h-302l-112 -210h-95l346 656h26zM579 790q-48 -29 -72.5 -35t-56 -6t-68.5 16q-42 17 -67 17t-74 -30l-40 53q53 46 117 46q38 0 78.5 -16t66 -16t73.5 24z"/>
<glyph glyph-name="Adieresis" horiz-adv-x="740" unicode="Ä" d="M483 347l-111 211l-112 -211h223zM727 60h-92l-113 210h-302l-112 -210h-95l346 656h26zM272 836q23 0 39.5 -16.5t16.5 -39.5t-16.5 -39.5t-39.5 -16.5t-39.5 16.5t-16.5 39.5t16.5 39.5t39.5 16.5zM471 836q23 0 39.5 -16.5t16.5 -39.5t-16.5 -39.5t-39.5 -16.5 t-39.5 16.5t-16.5 39.5t16.5 39.5t39.5 16.5z"/>
<glyph glyph-name="Aring" horiz-adv-x="740" unicode="Å" d="M483 347l-111 211l-112 -211h223zM727 60h-92l-113 210h-302l-112 -210h-95l319 605q20 -8 43 -8q20 0 38 6zM375 718q-20 0 -35 15t-15 35t15 35t35 15t35 -15t15 -35t-15 -35t-35 -15zM375 879q-47 0 -79 -32t-32 -79t32 -79q16 -16 36 -24l27 51h26l28 -53q23 8 41 26 q32 32 32 79t-32 79t-79 32z"/>
<glyph glyph-name="AE" horiz-adv-x="992" unicode="Æ" d="M511 377v301l-196 -301h196zM936 60h-425v235h-251l-152 -235h-101l473 732h456v-87h-339v-207h339v-85h-339v-269h339v-84z"/>
<glyph glyph-name="Ccedilla" horiz-adv-x="813" unicode="Ç" d="M767 173q-115 -129 -324 -131l-4 -25h9q26 0 45 -15.5t19 -47.5t-31.5 -56t-81.5 -24t-96 17l16 48q38 -12 67.5 -12t41.5 7.5t12 16.5q0 15 -22 15q-11 0 -43 -7l11 86q-158 18 -248.5 110.5t-90.5 220.5q0 138 113 233t282 95q101 0 184.5 -35.5t139.5 -103.5l-67 -44 q-102 109 -256 109q-126 0 -216 -75.5t-90 -184.5t88.5 -182.5t229 -73.5t245.5 104z"/>
<glyph glyph-name="Egrave" horiz-adv-x="536" unicode="È" d="M507 616h-340v-179h337v-74h-337v-228h337v-75h-423v631h426v-75zM409 733h-86l-179 144h126z"/>
<glyph glyph-name="Eacute" horiz-adv-x="536" unicode="É" d="M507 616h-340v-179h337v-74h-337v-228h337v-75h-423v631h426v-75zM455 877l-179 -144h-85l138 144h126z"/>
<glyph glyph-name="Ecircumflex" horiz-adv-x="536" unicode="Ê" d="M507 616h-340v-179h337v-74h-337v-228h337v-75h-423v631h426v-75zM495 731h-111l-84 71l-87 -71h-112l161 137h73z"/>
<glyph glyph-name="Edieresis" horiz-adv-x="536" unicode="Ë" d="M507 616h-340v-179h337v-74h-337v-228h337v-75h-423v631h426v-75zM198 846q23 0 39.5 -16.5t16.5 -39.5t-16.5 -39.5t-39.5 -16.5t-39.5 16.5t-16.5 39.5t16.5 39.5t39.5 16.5zM397 846q23 0 39.5 -16.5t16.5 -39.5t-16.5 -39.5t-39.5 -16.5t-39.5 16.5t-16.5 39.5 t16.5 39.5t39.5 16.5z"/>
<glyph glyph-name="Igrave" horiz-adv-x="226" unicode="Ì" d="M161 60h-86v632h86v-632zM224 736h-86l-139 144h126z"/>
<glyph glyph-name="Iacute" horiz-adv-x="226" unicode="Í" d="M161 60h-86v632h86v-632zM238 882l-139 -144h-85l98 144h126z"/>
<glyph glyph-name="Icircumflex" horiz-adv-x="226" unicode="Î" d="M160 60h-86v632h86v-632zM297 738h-113l-66 71l-65 -71h-109l137 138h73z"/>
<glyph glyph-name="Idieresis" horiz-adv-x="226" unicode="Ï" d="M147 60h-86v632h86v-632zM11 846q23 0 39.5 -16.5t16.5 -39.5t-16.5 -39.5t-39.5 -16.5t-39.5 16.5t-16.5 39.5t16.5 39.5t39.5 16.5zM190 846q23 0 39.5 -16.5t16.5 -39.5t-16.5 -39.5t-39.5 -16.5t-39.5 16.5t-16.5 39.5t16.5 39.5t39.5 16.5z"/>
<glyph glyph-name="Eth" horiz-adv-x="790" unicode="Ð" d="M180 142h105q127 0 185 13t101 50t65.5 90.5t22.5 123.5t-26.5 129.5t-75.5 97t-115 50t-189 12.5h-73v-241h189v-81h-189v-244zM97 792h186q157 0 229 -23.5t124.5 -73.5t80.5 -121.5t28 -163.5t-41.5 -174.5t-118 -129t-223.5 -46.5h-265v326h-87v81h87v325z"/>
<glyph glyph-name="Ntilde" horiz-adv-x="740" unicode="Ñ" d="M659 60h-26l-464 457v-457h-88v632h26l467 -463v463h85v-632zM560 772q-48 -29 -72.5 -35t-56 -6t-68.5 16q-42 17 -67 17t-74 -30l-40 53q53 46 117 46q38 0 78.5 -16t66 -16t73.5 24z"/>
<glyph glyph-name="Ograve" horiz-adv-x="869" unicode="Ò" d="M433 116q126 0 212 73t86 182t-87.5 184t-212 75t-209 -75t-84.5 -182.5t86.5 -182t208.5 -74.5zM430 704q164 0 277 -96t113 -235q0 -89 -50.5 -166t-140 -121t-193.5 -44q-163 0 -275 95.5t-112 232.5q0 91 50.5 168t139.5 121.5t191 44.5zM533 739h-86l-179 144h126z "/>
<glyph glyph-name="Oacute" horiz-adv-x="869" unicode="Ó" d="M433 116q126 0 212 73t86 182t-87.5 184t-212 75t-209 -75t-84.5 -182.5t86.5 -182t208.5 -74.5zM430 704q164 0 277 -96t113 -235q0 -89 -50.5 -166t-140 -121t-193.5 -44q-163 0 -275 95.5t-112 232.5q0 91 50.5 168t139.5 121.5t191 44.5zM587 887l-179 -144h-85 l138 144h126z"/>
<glyph glyph-name="Ocircumflex" horiz-adv-x="869" unicode="Ô" d="M433 116q126 0 212 73t86 182t-87.5 184t-212 75t-209 -75t-84.5 -182.5t86.5 -182t208.5 -74.5zM430 704q164 0 277 -96t113 -235q0 -89 -50.5 -166t-140 -121t-193.5 -44q-163 0 -275 95.5t-112 232.5q0 91 50.5 168t139.5 121.5t191 44.5zM635 729h-113l-86 71 l-85 -71h-109l157 138h73z"/>
<glyph glyph-name="Otilde" horiz-adv-x="869" unicode="Õ" d="M433 116q126 0 212 73t86 182t-87.5 184t-212 75t-209 -75t-84.5 -182.5t86.5 -182t208.5 -74.5zM430 704q164 0 277 -96t113 -235q0 -89 -50.5 -166t-140 -121t-193.5 -44q-163 0 -275 95.5t-112 232.5q0 91 50.5 168t139.5 121.5t191 44.5zM630 788q-48 -29 -72.5 -35 t-56 -6t-68.5 16q-42 17 -67 17t-74 -30l-40 53q53 46 117 46q38 0 78.5 -16t66 -16t73.5 24z"/>
<glyph glyph-name="Odieresis" horiz-adv-x="869" unicode="Ö" d="M433 116q126 0 212 73t86 182t-87.5 184t-212 75t-209 -75t-84.5 -182.5t86.5 -182t208.5 -74.5zM430 704q164 0 277 -96t113 -235q0 -89 -50.5 -166t-140 -121t-193.5 -44q-163 0 -275 95.5t-112 232.5q0 91 50.5 168t139.5 121.5t191 44.5zM326 862q21 0 36.5 -15.5 t15.5 -37t-15.5 -37t-37 -15.5t-37 15.5t-15.5 37t15.5 37t37.5 15.5zM524 862q21 0 36 -15t15 -36.5t-15 -36.5t-36.5 -15t-36.5 15t-15 36.5t15 36.5t37 15z"/>
<glyph glyph-name="multiply" horiz-adv-x="729" unicode="×" d="M670 711l-260 -260l259 -259l-50 -50l-259 259l-259 -259l-51 50l260 259l-260 260l50 50l260 -260l260 260z"/>
<glyph glyph-name="Oslash" horiz-adv-x="868" unicode="Ø" d="M280 169q72 -43 153 -43q125 0 211.5 86t86.5 214q0 115 -69 193zM602 673q-79 53 -169 53q-122 0 -209 -87.5t-87 -216.5q0 -119 80 -202zM719 687q100 -105 100 -261q0 -104 -51 -193t-140 -140t-200.5 -51t-204.5 60l-79 -95l-64 51l80 96q-111 111 -111 269 q0 106 51 195.5t140.5 140.5t193.5 51q127 0 227 -70l71 85l62 -50z"/>
<glyph glyph-name="Ugrave" horiz-adv-x="655" unicode="Ù" d="M572 310q0 -95 -22.5 -146.5t-80 -86.5t-129.5 -35t-124.5 20t-83.5 55.5t-40 73t-9 119.5v379h86v-379q0 -68 4.5 -93t23.5 -49t54 -38.5t76 -14.5t72 13t52 36.5t28.5 51.5t7.5 94v379h85v-379zM393 726h-86l-179 144h126z"/>
<glyph glyph-name="Uacute" horiz-adv-x="655" unicode="Ú" d="M572 310q0 -95 -22.5 -146.5t-80 -86.5t-129.5 -35t-124.5 20t-83.5 55.5t-40 73t-9 119.5v379h86v-379q0 -68 4.5 -93t23.5 -49t54 -38.5t76 -14.5t72 13t52 36.5t28.5 51.5t7.5 94v379h85v-379zM533 867l-179 -144h-85l138 144h126z"/>
<glyph glyph-name="Ucircumflex" horiz-adv-x="655" unicode="Û" d="M572 310q0 -95 -22.5 -146.5t-80 -86.5t-129.5 -35t-124.5 20t-83.5 55.5t-40 73t-9 119.5v379h86v-379q0 -68 4.5 -93t23.5 -49t54 -38.5t76 -14.5t72 13t52 36.5t28.5 51.5t7.5 94v379h85v-379zM531 745h-113l-86 71l-85 -71h-109l157 138h73z"/>
<glyph glyph-name="Udieresis" horiz-adv-x="655" unicode="Ü" d="M572 310q0 -95 -22.5 -146.5t-80 -86.5t-129.5 -35t-124.5 20t-83.5 55.5t-40 73t-9 119.5v379h86v-379q0 -68 4.5 -93t23.5 -49t54 -38.5t76 -14.5t72 13t52 36.5t28.5 51.5t7.5 94v379h85v-379zM228 854q20 0 35 -15t15 -35t-15 -35t-35 -15t-35 15t-15 35t15 35t35 15 zM428 854q21 0 36 -15t15 -36t-15 -36t-36 -15t-36 15t-15 36t15 36t36 15z"/>
<glyph glyph-name="Yacute" horiz-adv-x="592" unicode="Ý" d="M575 691l-235 -332v-299h-84v299l-239 332h101l179 -249l177 249h101zM455 867l-179 -144h-85l138 144h126z"/>
<glyph glyph-name="Thorn" horiz-adv-x="682" unicode="Þ" d="M352 119q81 0 142 62t61 148.5t-60.5 148t-145.5 61.5t-143.5 -60.5t-58.5 -149.5t60 -149.5t145 -60.5zM152 522q81 97 200 97t202 -84.5t83 -203.5t-82 -204t-199 -85t-204 96v-271h-82v943h82v-288z"/>
<glyph glyph-name="germandbls" d="M79 60v472q0 119 25 164.5t72.5 72.5t108.5 27q85 0 138.5 -50t53.5 -127q0 -63 -42.5 -109t-116.5 -55q86 -9 135.5 -65t49.5 -135q0 -93 -57.5 -153t-146.5 -60q-60 0 -101 24v65q51 -24 92 -24q62 0 103.5 42.5t41.5 111.5t-49.5 111t-143.5 45v76h15q67 0 108.5 35.5 t41.5 86t-34.5 83t-81.5 32.5t-81.5 -22.5t-48 -57t-13.5 -125.5v-465h-69z" unicode="ß"/>
<glyph glyph-name="agrave" horiz-adv-x="683" unicode="à" d="M332 119q83 0 143 60t60 149.5t-59 150t-144.5 60.5t-144.5 -62.5t-59 -147.5t60 -147.5t144 -62.5zM612 60h-81v80q-89 -98 -205 -98t-198.5 85.5t-82.5 204t83 203t202.5 84.5t200.5 -97v83h81v-545zM403 667h-87l-162 134h124z"/>
<glyph glyph-name="aacute" horiz-adv-x="683" unicode="á" d="M332 119q83 0 143 60t60 149.5t-59 150t-144.5 60.5t-144.5 -62.5t-59 -147.5t60 -147.5t144 -62.5zM612 60h-81v80q-89 -98 -205 -98t-198.5 85.5t-82.5 204t83 203t202.5 84.5t200.5 -97v83h81v-545zM408 797h124l-162 -134h-87z"/>
<glyph glyph-name="acircumflex" horiz-adv-x="683" unicode="â" d="M332 119q83 0 143 60t60 149.5t-59 150t-144.5 60.5t-144.5 -62.5t-59 -147.5t60 -147.5t144 -62.5zM612 60h-81v80q-89 -98 -205 -98t-198.5 85.5t-82.5 204t83 203t202.5 84.5t200.5 -97v83h81v-545zM545 670l-113 1l-86 71l-85 -71l-109 -1l157 139h73z"/>
<glyph glyph-name="atilde" horiz-adv-x="683" unicode="ã" d="M332 119q83 0 143 60q60 59 60 149t-59 150q-58 60 -144 61q-86 -1 -145 -63t-59 -147t60 -147t144 -63zM612 60h-81v80q-89 -98 -205 -98t-198 86t-83 204q0 118 83 202q82 84 202 85q120 0 201 -97v83h81v-545zM531 747q-64 -49 -122 -49q-35 0 -75 20t-66 19 q-25 0 -74 -36l-40 61q52 53 115 53q39 0 81 -20q37 -17 63 -17t76 27z"/>
<glyph glyph-name="adieresis" horiz-adv-x="683" unicode="ä" d="M332 119q83 0 143 60q60 59 60 149t-59 150q-58 60 -144 61q-86 -1 -145 -63t-59 -147t60 -147t144 -63zM612 60h-81v80q-89 -98 -205 -98t-198 86t-83 204q0 118 83 202q82 84 202 85q120 0 201 -97v83h81v-545zM242 795q24 -1 40 -17t16 -39t-16 -39t-40 -17 q-24 1 -40 17t-16 39t16 39t40 17zM441 795q23 -1 39 -17t17 -39q-1 -23 -17 -39t-39 -17q-23 1 -39 17t-17 39q1 23 17 39t39 17z"/>
<glyph glyph-name="aring" horiz-adv-x="683" unicode="å" d="M332 119q83 0 143 60q60 59 60 149t-59 150q-58 60 -144 61q-86 -1 -145 -63t-59 -147t60 -147t144 -63zM612 60h-81v80q-89 -98 -205 -98t-198 86t-83 204q0 118 83 202q82 84 202 85q120 0 201 -97v83h81v-545zM343 709q15 -1 27 11t11 28q1 16 -11 26q-12 12 -28 12 t-26 -12q-12 -12 -12 -26q0 -16 12 -28t27 -11zM343 833q35 0 60 -25q25 -24 25 -60t-25 -61t-61 -25t-60 25q-25 25 -25 61t25 60q25 25 61 25z"/>
<glyph glyph-name="ae" horiz-adv-x="1079" unicode="æ" d="M309 121q82 0 138 61t56 152t-55.5 148t-137.5 57t-135.5 -58.5t-53.5 -149t53.5 -150.5t134.5 -60zM951 391q-20 72 -66.5 110t-110.5 38t-114 -39t-67 -109h358zM1040 318h-453q6 -89 61 -144t132 -55q115 0 184 127l67 -35q-39 -82 -106 -125.5t-150 -43.5 q-119 0 -200 99v-81h-74v85q-86 -103 -197 -103t-187.5 84.5t-76.5 204.5t75.5 204t187.5 84t198 -99v85h74v-84q42 51 86.5 74.5t108.5 23.5q116 0 191.5 -80.5t78.5 -220.5z"/>
<glyph glyph-name="ccedilla" horiz-adv-x="647" unicode="ç" d="M602 171q-82 -117 -242 -129l-4 -25h9q26 0 45 -15.5t19 -47.5t-31.5 -56t-81.5 -24t-96 17l16 48q38 -12 67.5 -12t41.5 7.5t12 16.5q0 15 -22 15q-11 0 -43 -7l11 85q-118 14 -188.5 95t-70.5 189q0 120 85 205.5t220 85.5q80 0 147.5 -35t105.5 -98l-65 -41 q-73 95 -191 95q-93 0 -156 -59.5t-63 -147.5t62 -151t157 -63q114 0 192 96z"/>
<glyph glyph-name="egrave" horiz-adv-x="650" unicode="è" d="M514 391q-15 70 -68 109t-122 39q-140 0 -186 -148h376zM606 318h-478q5 -90 60.5 -144.5t132.5 -54.5q131 0 200 129l70 -36q-47 -87 -111 -128.5t-153 -41.5q-123 0 -203 84.5t-80 203.5t80.5 204t199.5 85t199 -80.5t83 -220.5zM424 669l-96 1l-179 147h136z"/>
<glyph glyph-name="eacute" horiz-adv-x="650" unicode="é" d="M514 391q-15 70 -68 109t-122 39q-140 0 -186 -148h376zM606 318h-478q5 -90 60.5 -144.5t132.5 -54.5q131 0 200 129l70 -36q-47 -87 -111 -128.5t-153 -41.5q-123 0 -203 84.5t-80 203.5t80.5 204t199.5 85t199 -80.5t83 -220.5zM508 828l-179 -147l-95 -1l138 148h136 z"/>
<glyph glyph-name="ecircumflex" horiz-adv-x="650" unicode="ê" d="M514 391q-15 70 -68 109t-122 39q-140 0 -186 -148h376zM606 318h-478q5 -90 60.5 -144.5t132.5 -54.5q131 0 200 129l70 -36q-47 -87 -111 -128.5t-153 -41.5q-123 0 -203 84.5t-80 203.5t80.5 204t199.5 85t199 -80.5t83 -220.5zM533 670l-113 1l-86 71l-85 -71 l-109 -1l157 139h73z"/>
<glyph glyph-name="edieresis" horiz-adv-x="650" unicode="ë" d="M514 391q-15 70 -68 109t-122 39q-140 0 -186 -148h376zM606 318h-478q5 -90 60.5 -144.5t132.5 -54.5q131 0 200 129l70 -36q-47 -87 -111 -128.5t-153 -41.5q-123 0 -203 84.5t-80 203.5t80.5 204t199.5 85t199 -80.5t83 -220.5zM225 795q23 0 39.5 -16.5t16.5 -39.5 t-16.5 -39.5t-39.5 -16.5t-39.5 16.5t-16.5 39.5t16.5 39.5t39.5 16.5zM424 795q23 0 39.5 -16.5t16.5 -39.5t-16.5 -39.5t-39.5 -16.5t-39.5 16.5t-16.5 39.5t16.5 39.5t39.5 16.5z"/>
<glyph glyph-name="igrave" horiz-adv-x="200" unicode="ì" d="M155 60h-83v545h83v-545zM195 672l-97 -1l-162 135h134z"/>
<glyph glyph-name="iacute" horiz-adv-x="200" unicode="í" d="M147 60h-83v545h83v-545zM120 808l121 1l-154 -135h-92z"/>
<glyph glyph-name="icircumflex" horiz-adv-x="200" unicode="î" d="M147 60h-83v545h83v-545zM285 671h-113l-66 71l-65 -71h-109l137 138h73z"/>
<glyph glyph-name="idieresis" horiz-adv-x="200" unicode="ï" d="M143 60h-83v545h83v-545zM9 795q23 0 39.5 -16.5t16.5 -39.5t-16.5 -39.5t-39.5 -16.5t-39.5 16.5t-16.5 39.5t16.5 39.5t39.5 16.5zM188 795q23 0 39.5 -16.5t16.5 -39.5t-16.5 -39.5t-39.5 -16.5t-39.5 16.5t-16.5 39.5t16.5 39.5t39.5 16.5z"/>
<glyph glyph-name="eth" horiz-adv-x="655" unicode="ð" d="M333 121q82 0 140 61.5t58 151t-55.5 147.5t-142 58t-146 -57.5t-59.5 -147.5t62 -151.5t143 -61.5zM418 721q107 -104 151.5 -201t44.5 -184q0 -120 -82.5 -207t-203.5 -87q-70 0 -138.5 39.5t-106 106t-37.5 144.5q0 118 80.5 202t186.5 84q53 0 109 -22q-39 58 -80 94 l-109 -39l-31 64l83 28q-37 32 -89 70l47 48q64 -43 117 -88l82 34l31 -64z"/>
<glyph glyph-name="ntilde" horiz-adv-x="610" unicode="ñ" d="M547 60h-82v260q0 90 -8.5 122.5t-25 55t-42 33.5t-62 11t-71.5 -18t-60 -50t-34.5 -68t-9.5 -144v-202h-83v545h83v-82q81 96 192 96q59 0 107 -30.5t72 -84t24 -164.5v-280zM490 747q-64 -49 -122 -49q-37 0 -74 19q-41 20 -67.5 20t-73.5 -36l-40 51q51 53 116 53 q39 0 81 -20q37 -17 62 -17t77 27z"/>
<glyph glyph-name="ograve" horiz-adv-x="655" unicode="ò" d="M328 121q83 0 141.5 60.5t58.5 146t-59.5 148t-141 62.5t-140.5 -62.5t-59 -148.5t57 -146t143 -60zM328 619q118 0 200.5 -85t82.5 -204t-81.5 -203.5t-201.5 -84.5t-202 84.5t-82 203.5t82.5 204t201.5 85zM425 667h-87l-162 134h124z"/>
<glyph glyph-name="oacute" horiz-adv-x="655" unicode="ó" d="M328 121q83 0 141.5 60.5t58.5 146t-59.5 148t-141 62.5t-140.5 -62.5t-59 -148.5t57 -146t143 -60zM328 619q118 0 200.5 -85t82.5 -204t-81.5 -203.5t-201.5 -84.5t-202 84.5t-82 203.5t82.5 204t201.5 85zM353 801h124l-162 -134h-87z"/>
<glyph glyph-name="ocircumflex" horiz-adv-x="655" unicode="ô" d="M328 121q83 0 141.5 60.5t58.5 146t-59.5 148t-141 62.5t-140.5 -62.5t-59 -148.5t57 -146t143 -60zM328 619q118 0 200.5 -85t82.5 -204t-81.5 -203.5t-201.5 -84.5t-202 84.5t-82 203.5t82.5 204t201.5 85zM527 670l-113 1l-86 71l-85 -71l-109 -1l157 139h73z"/>
<glyph glyph-name="otilde" horiz-adv-x="655" unicode="õ" d="M328 121q84 1 142 61t58 146t-60 148t-140 62q-82 0 -141 -62t-59 -149q0 -86 57 -146t143 -60zM328 619q118 0 200 -85t83 -204q1 -120 -81 -204t-202 -84t-202 84t-82 204q0 119 82 204t202 85zM523 739q-64 -49 -122 -49q-37 0 -74 19q-41 20 -67 20t-74 -36l-40 61 q51 53 116 53q39 0 81 -20q37 -17 62 -17t77 27z"/>
<glyph glyph-name="odieresis" horiz-adv-x="655" unicode="ö" d="M328 121q84 1 142 61t58 146t-60 148t-140 62q-82 0 -141 -62t-59 -149q0 -86 57 -146t143 -60zM328 619q118 0 200 -85t83 -204q1 -120 -81 -204t-202 -84t-202 84t-82 204q0 119 82 204t202 85zM228 794q24 0 40 -16t16 -40t-16 -40t-40 -16t-40 16t-16 40t16 40t40 16 zM427 794q23 0 39 -16t17 -40q-1 -24 -17 -40t-39 -16t-39 16t-17 40q1 24 17 40t39 16z"/>
<glyph glyph-name="divide" horiz-adv-x="733" unicode="÷" d="M423 236h-109v112h109v-112zM711 431h-686v70h686v-70zM423 584h-109v112h109v-112z"/>
<glyph glyph-name="oslash" horiz-adv-x="655" unicode="ø" d="M234 144q42 -23 94 -23q83 0 141.5 60.5t58.5 146.5q0 66 -37 119zM442 499q-52 39 -114 39q-82 0 -141 -62.5t-59 -146t50 -140.5zM547 513q64 -80 64 -184q0 -118 -81.5 -202.5t-201.5 -84.5q-79 0 -147 40l-56 -66l-53 46l53 65q-81 84 -81 203t82.5 204t201.5 85 q93 0 168 -57l57 68l56 -45z"/>
<glyph glyph-name="ugrave" horiz-adv-x="608" unicode="ù" d="M539 60h-83v82q-81 -96 -192 -96q-59 0 -107 30.5t-72 84t-24 164.5v280h82v-260q0 -90 8.5 -122.5t25 -55t42 -33.5t62 -11t71.5 18t60 50t34.5 68t9.5 144v202h83v-545zM365 667h-67l-162 134h104z"/>
<glyph glyph-name="uacute" horiz-adv-x="608" unicode="ú" d="M539 60h-83v82q-81 -96 -192 -96q-59 0 -107 30.5t-72 84t-24 164.5v280h82v-260q0 -90 8.5 -122.5t25 -55t42 -33.5t62 -11t71.5 18t60 50t34.5 68t9.5 144v202h83v-545zM330 801h104l-162 -134h-67z"/>
<glyph glyph-name="ucircumflex" horiz-adv-x="608" unicode="û" d="M539 60h-83v82q-81 -96 -192 -96q-59 0 -107 30.5t-72 84t-24 164.5v280h82v-260q0 -90 8.5 -122.5t25 -55t42 -33.5t62 -11t71.5 18t60 50t34.5 68t9.5 144v202h83v-545zM503 670l-113 1l-86 71l-85 -71l-109 -1l157 139h73z"/>
<glyph glyph-name="udieresis" horiz-adv-x="608" unicode="ü" d="M539 60h-83v82q-81 -96 -192 -96q-59 0 -107 30.5t-72 84t-24 164.5v280h82v-260q0 -90 8.5 -122.5t25 -55t42 -33.5t62 -11t71.5 18t60 50t34.5 68t9.5 144v202h83v-545zM204 753q20 0 34.5 -14.5t14.5 -34.5t-14.5 -34.5t-34.5 -14.5t-34.5 14.5t-14.5 34.5t14.5 34.5 t34.5 14.5zM399 753q20 0 34.5 -14.5t14.5 -34.5t-14.5 -34.5t-34.5 -14.5t-34.5 14.5t-14.5 34.5t14.5 34.5t34.5 14.5z"/>
<glyph glyph-name="yacute" horiz-adv-x="536" unicode="ý" d="M534 605l-323 -738h-86l105 240l-221 498h86l179 -399l173 399h87zM423 853l-179 -147h-85l138 147h126z"/>
<glyph glyph-name="thorn" horiz-adv-x="592" unicode="þ" d="M166 309h114q174 0 174 117q0 34 -17.5 62t-47 40t-103.5 12h-120v-231zM166 624h64q128 0 167.5 -10t73.5 -36t53 -65t19 -87q0 -104 -71.5 -152t-223.5 -48h-82v-166h-86v732h86v-168z"/>
<glyph glyph-name="OE" horiz-adv-x="1058" unicode="Œ" d="M379 126q112 0 189.5 85t77.5 213t-79 215t-190 87t-186.5 -87t-75.5 -213.5t77.5 -213t186.5 -86.5zM1034 707h-304v-210h301v-84h-301v-268h301v-85h-380v123q-50 -68 -120.5 -104.5t-157 -36.5t-167 50.5t-126.5 138.5t-46 193.5t45.5 194.5t125.5 140t166 51 t157.5 -36t122.5 -104v122h383v-85z"/>
<glyph glyph-name="oe" horiz-adv-x="1078" unicode="œ" d="M313 119q77 0 133 59.5t56 148t-56.5 150.5t-135 62t-135 -60.5t-56.5 -148t56.5 -149.5t137.5 -62zM951 390q-20 71 -68.5 110t-113 39t-112 -38t-68.5 -111h362zM1039 317h-457q9 -95 62 -146.5t129 -51.5q59 0 107 33t77 97l67 -37q-43 -86 -104.5 -128t-140.5 -42 t-138 33.5t-101 98.5q-89 -132 -228 -132q-113 0 -192.5 85.5t-79.5 206.5t80 203t192 82q139 0 228 -135q80 135 230 135q116 0 193 -83.5t77 -195.5q0 -12 -1 -23z"/>
<glyph glyph-name="Scaron" horiz-adv-x="503" unicode="Š" d="M362 552q-40 46 -68 62t-65 16t-63 -20.5t-26 -52.5t24 -56t110.5 -79t126.5 -102.5t40 -101.5q0 -72 -64.5 -122.5t-143.5 -50.5q-146 0 -229 141l73 36q65 -103 146 -103q53 0 89.5 28t36.5 66t-31 71.5t-114 86.5q-75 50 -101 74t-38.5 53t-12.5 59q0 62 50.5 106 t130.5 44q63 0 109 -28t89 -81zM446 881l-163 -129h-73l-156 129h108l85 -62l86 62h113z"/>
<glyph glyph-name="scaron" horiz-adv-x="388" unicode="š" d="M363 541l-53 -55q-59 55 -108 55q-31 0 -52 -19.5t-21 -48t23.5 -50t83.5 -53t92.5 -69.5t32.5 -93q0 -70 -48.5 -118t-119.5 -48q-99 0 -165 84l52 58q54 -63 110 -63q38 0 65 25t27 58.5t-24.5 56t-84 52.5t-90 66.5t-30.5 96t43.5 101.5t115 42t151.5 -78zM383 807 l-153 -139h-73l-147 139h108l76 -72l76 72h113z"/>
<glyph glyph-name="Ydieresis" horiz-adv-x="592" unicode="Ÿ" d="M575 741l-235 -332v-299h-84v299l-239 332h101l179 -249l177 249h101zM197 886q23 0 39.5 -16.5t16.5 -39.5t-16.5 -39.5t-39.5 -16.5t-39.5 16.5t-16.5 39.5t16.5 39.5t39.5 16.5zM396 886q23 0 39.5 -16.5t16.5 -39.5t-16.5 -39.5t-39.5 -16.5t-39.5 16.5t-16.5 39.5 t16.5 39.5t39.5 16.5z"/>
</font>
</defs>
</svg>
